<?xml version="1.0" standalone="no"?>
<!DOCTYPE svg PUBLIC "-//W3C//DTD SVG 20010904//EN"
 "http://www.w3.org/TR/2001/REC-SVG-20010904/DTD/svg10.dtd">
<svg version="1.0" xmlns="http://www.w3.org/2000/svg"
 width="512.000000pt" height="512.000000pt" viewBox="0 0 512.000000 512.000000"
 preserveAspectRatio="xMidYMid meet">

<g transform="translate(0.000000,512.000000) scale(0.100000,-0.100000)"
fill="#0f8fff" stroke="none">
<path d="M0 2560 l0 -2560 2560 0 2560 0 0 2560 0 2560 -2560 0 -2560 0 0
-2560z m1880 1840 c100 -13 204 -64 261 -128 25 -29 72 -110 121 -211 151
-311 811 -1733 975 -2101 156 -351 203 -419 331 -482 l67 -33 567 -3 c313 -1
568 -6 568 -10 0 -14 -118 -220 -171 -299 -67 -100 -177 -237 -268 -335 l-73
-78 -481 0 c-278 0 -510 4 -547 10 -140 22 -254 109 -323 246 -19 38 -166 353
-327 699 -161 347 -300 645 -309 663 l-17 32 -219 -480 -219 -480 -392 0 -393
0 18 43 c10 23 195 427 411 897 216 470 394 860 397 867 7 17 -45 139 -98 229
-61 102 -147 184 -226 214 -85 32 -326 43 -821 37 l-413 -6 31 57 c106 190
329 478 461 594 l59 53 108 6 c188 9 844 9 922 -1z"/>
</g>
</svg>
